<svg width="630" height="270" viewBox="0 0 630 270" fill="none" xmlns="http://www.w3.org/2000/svg">
<rect width="630" height="270" fill="#E5E5E5"/>
<mask id="mask0" mask-type="alpha" maskUnits="userSpaceOnUse" x="0" y="0" width="630" height="270">
<rect width="630" height="270" fill="white"/>
</mask>
<g mask="url(#mask0)">
<path d="M639 270H-16.0045H-36V173.722L-8.73339 212.632L47.6176 169.731L58.5242 195.671L160.32 114.359L193.645 164.244L312.407 53L424.503 164.244L482.066 114.359L570.09 201.657L628.699 155.763L639 270Z" fill="#52759D"/>
<path d="M639 270H-16.0045H-36V173.722L-8.73339 212.632L47.6176 169.731L58.5242 195.671L160.32 114.359L193.645 164.244L312.407 53L424.503 164.244L482.066 114.359L570.09 201.657M639 270L570.09 201.657M639 270L628.699 155.763L570.09 201.657" stroke="#234361"/>
<path d="M322.5 84.5L313.5 53L187.5 169.5L180.5 164.5C176.667 160.667 167.5 151.6 161.5 146C155.5 140.4 159 133.667 161.5 131L153 119.5L57.5 195L44.5 186.5L40.5 174.5L-0.5 207.5V269H292V260L281 237.5L301.5 200.5C298.333 197.333 292.9 190.1 296.5 186.5C300.1 182.9 306.667 173.667 309.5 169.5C306.333 166.5 298.4 155.3 292 134.5C285.6 113.7 309.667 92.5 322.5 84.5Z" fill="white" stroke="white"/>
<path d="M525.435 269L424 164.686L479.789 117C477.592 128.756 477.152 152.467 492.976 153.261C512.756 154.255 514.785 170.647 546.23 192.503C571.386 209.988 571.25 205.087 568.038 200.451L636 269H525.435Z" fill="#3F5976" fill-opacity="0.93"/>
</g>
</svg>
